<?xml version="1.0" encoding="UTF-8"?>
<svg width="634px" height="126px" viewBox="0 0 634 126" version="1.1" xmlns="http://www.w3.org/2000/svg" xmlns:xlink="http://www.w3.org/1999/xlink">
    <title>编组备份</title>
    <g id="页面-1" stroke="none" stroke-width="1" fill="none" fill-rule="evenodd">
        <g id="画板备份-13" transform="translate(-245.000000, -580.000000)" fill="#000000" fill-rule="nonzero">
            <g id="编组备份" transform="translate(245.000000, 580.000000)">
                <path d="M60.2235953,16.1379001 C50.7196606,12.6905531 52.0935024,0 45.245883,0 C30.2099117,0 20.6402878,4.89354668 12.1654676,14.5790695 C3.96402878,23.7265077 0,35.564369 0,50.2271744 C0,64.7554586 3.96402878,76.5933198 12.1654676,85.7407581 C20.6402878,95.1572386 32.3956835,100 47.4316547,100 C62.3309353,100 74.0863309,95.2917597 82.6978417,85.8752792 C90.8992806,76.8623621 95,65.0245009 95,50.2271744 C95,35.4298478 92.6346285,25.6161626 84.4331896,16.6032455 C77.6759742,9.17744822 69.72753,19.5852471 60.2235953,16.1379001 Z M47.4316547,14.0409849 C57.5467626,14.0409849 65.3381295,17.1349714 70.8057554,23.5919866 C76.1366906,30.0490018 78.8705036,38.9273977 78.8705036,50.2271744 C78.8705036,61.526951 76.1366906,70.2708258 70.8057554,76.5933198 C65.3381295,82.9158139 57.5467626,86.1443215 47.4316547,86.1443215 C37.3165468,86.1443215 29.3884892,82.7812928 23.9208633,76.1897564 C18.5899281,69.7327412 15.9928058,61.1233875 15.9928058,50.2271744 C15.9928058,39.19644 18.5899281,30.5870864 23.9208633,24.1300712 C29.5251799,17.4040137 37.3165468,14.0409849 47.4316547,14.0409849 Z" id="形状"></path>
                <path d="M143.011952,27 C133.665339,27 126.517928,30.1234568 121.569721,36.3703704 L121.569721,28.9012346 L107,28.9012346 L107,118.165339 C107,122.492303 110.507697,126 114.834661,126 C119.161625,126 122.669323,122.492303 122.669323,118.165339 L122.669323,89.4691358 L122.669323,89.4691358 C128.442231,97.0740741 135.589641,101.012346 143.836653,101.012346 C154.007968,101.012346 162.11753,97.345679 167.890438,90.0123457 C173.250996,83.2222222 176,74.6666667 176,64.345679 C176,53.4814815 173.250996,44.7901235 167.752988,38 C161.705179,30.6666667 153.458167,27 143.011952,27 Z M140.675299,39.4938272 C147.547809,39.4938272 152.633466,41.9382716 155.932271,46.8271605 C158.543825,50.9012346 159.918327,56.7407407 159.918327,64.345679 C159.918327,71.9506173 158.406375,77.7901235 155.51992,81.8641975 C152.221116,86.2098765 146.998008,88.5185185 140.125498,88.5185185 C135.039841,88.5185185 130.916335,86.4814815 127.61753,82.4074074 C123.906375,77.9259259 122.119522,71.9506173 122.119522,64.617284 L122.119522,63.5308642 C122.119522,56.4691358 123.494024,50.9012346 126.517928,46.691358 C129.816733,41.8024691 134.49004,39.4938272 140.675299,39.4938272 Z" id="形状"></path>
                <path d="M220.023669,27 C209.544379,27 201.242604,30.4825688 195.254438,37.5816514 C188.994083,44.546789 186,53.1192661 186,63.4330275 C186,74.9522936 189.266272,83.9266055 195.798817,90.4899083 C201.923077,96.7853211 210.224852,100 220.704142,100 C230.094675,100 237.852071,97.3211009 244.112426,92.0972477 C249.011834,87.8110092 252.278107,82.3192661 253.911243,75.8899083 L238.39645,75.8899083 C236.491124,79.7743119 234.449704,82.587156 232.136095,84.3284404 C229.142012,86.4715596 225.331361,87.5431193 220.568047,87.5431193 C214.988166,87.5431193 210.633136,85.8018349 207.639053,82.453211 C204.64497,79.1045872 202.87574,74.1486239 202.331361,67.7192661 L255,67.7192661 C255,55.2623853 252.142012,45.4844037 246.56213,38.5192661 C240.43787,30.7504587 231.591716,27 220.023669,27 Z M220.431953,39.4568807 C231.319527,39.4568807 237.443787,44.9486239 238.804734,56.2 L202.60355,56.2 C203.556213,50.7082569 205.461538,46.5559633 208.319527,43.7431193 C211.313609,40.7963303 215.260355,39.4568807 220.431953,39.4568807 Z" id="形状"></path>
                <path d="M302.678264,29 C298.509067,29 295.97397,29.3459775 292.477223,31.0955057 C289.114967,32.7104548 286.021692,35.2674575 283.331887,38.4973557 L283.331887,30.4226103 L268,30.4226103 L268,100 L283.331887,100 L283.331887,58.1459029 C283.869848,52.6281602 285.752711,48.3216293 288.980477,45.3608893 C291.804772,42.6693075 295.167028,41.3235166 298.932755,41.3235166 C309.422993,41.3235166 314.668113,46.9758384 314.668113,58.4150611 L314.668113,100 L330,100 L330,57.0692702 C330,37.9590393 320.027505,29 302.678264,29 Z" id="路径"></path>
                <path d="M374.451613,27 C365.505376,27 358.376344,28.7412844 352.924731,32.4917431 C347.333333,35.9743119 344.677419,40.9302752 344.677419,47.359633 C344.677419,53.387156 347.473118,58.0752294 353.064516,61.4238532 C356.55914,63.5669725 362.569892,65.5761468 371.096774,67.4513761 C378.365591,69.0587156 383.11828,70.2642202 385.354839,71.3357798 C389.548387,73.2110092 391.645161,75.7559633 391.645161,78.9706422 C391.645161,84.5963303 386.682796,91.5040593 375.5,91.5040593 C370.188172,91.5040593 365.784946,86.6055046 363.408602,84.9981651 C361.032258,83.1229358 359.354839,80.0422018 358.516129,75.6220183 L343,75.6220183 C344.537634,91.8293578 355.301075,100 375.430108,100 C397.096774,100 408,92.6330275 408,77.8990826 C408,71.7376147 405.064516,66.7816514 399.333333,63.2990826 C395.419355,60.7541284 389.268817,58.6110092 381.16129,56.7357798 C373.892473,54.9944954 369.139785,53.6550459 366.763441,52.7174312 C362.849462,51.1100917 361.032258,49.1009174 361.032258,46.9577982 C361.032258,44.2788991 362.150538,42.4036697 364.666667,41.1981651 C366.763441,39.9926606 369.978495,39.4568807 374.172043,39.4568807 C379.064516,39.4568807 382.698925,40.1266055 385.075269,41.6 C387.311828,42.9394495 388.989247,45.4844037 390.107527,48.9669725 L405.623656,48.9669725 C403.946237,34.2330275 393.462366,27 374.451613,27 Z" id="路径"></path>
                <path d="M440.642857,7 L425.419255,13.3903509 L425.419255,29.7061404 L413,29.7061404 L413,42.4868421 L425.419255,42.4868421 L425.419255,82.1885965 C425.419255,87.8991228 426.754658,92.1140351 429.425466,95.1052632 C432.229814,98.3684211 436.636646,100 442.645963,100 L454.263975,100 L454.263975,87.2192982 L445.18323,87.2192982 C443.580745,87.2192982 442.512422,86.8114035 441.71118,85.995614 C440.909938,85.0438596 440.642857,83.8201754 440.642857,82.1885965 L440.642857,42.4868421 L456,42.4868421 L456,29.7061404 L440.642857,29.7061404 L440.642857,7 Z" id="路径"></path>
                <path d="M501.954693,27 C497.501618,27 493.744337,28.220339 490.543689,30.7966102 C487.899676,32.6949153 485.673139,35.4067797 483.724919,38.9322034 L483.724919,28.8983051 L468,28.8983051 L468,99 L483.724919,99 L483.724919,61.8474576 C483.724919,55.8813559 485.533981,51.1355932 489.430421,47.4745763 C492.770227,44.220339 496.527508,42.7288136 500.702265,42.7288136 C504.042071,42.7288136 507.381877,43.1355932 511,44.220339 L511,28.7627119 C508.495146,27.5423729 505.433657,27 501.954693,27 Z" id="路径"></path>
                <path d="M550.116525,26 C541.027542,26 533.866525,27.5030546 528.633475,30.7824463 C522.436441,34.3351207 518.580508,40.0740563 517.065678,47.8626117 L532.627119,49.0923836 C533.45339,45.4030679 535.519068,42.6702414 538.548729,40.8939042 C541.165254,39.2542084 544.608051,38.5710017 549.014831,38.5710017 C559.205508,38.5710017 564.300847,43.0801654 564.300847,52.3717754 L564.300847,55.1046019 L548.739407,55.5145258 C538.273305,55.7878085 530.994335,56.9943214 525.210437,61.0935611 C518.875691,65.3294421 515,72.4580499 515,80.3832467 C515,86.2588236 517.20339,91.0412699 521.610169,94.8672269 C525.879237,98.5565427 534.986713,100 542.423154,100 C548.620188,100 550.667373,99.3763906 555.211864,97.3267708 C559.205508,95.4137922 562.648305,92.8176071 565.402542,89.2649327 L565.402542,98.5565427 L580,98.5565427 L580,53.464906 C580,44.8565026 577.79661,38.2977191 573.389831,33.7885554 C568.432203,28.5961851 560.582627,26 550.116525,26 Z M564.300847,66.3091904 L564.300847,69.8618648 C564.300847,75.3275177 562.097458,79.8366814 557.966102,83.3893558 C553.834746,86.8053889 548.739407,88.5817261 542.680085,88.5817261 C539.237288,88.5817261 536.483051,87.6252368 534.279661,85.9855409 C532.076271,84.345845 531.112288,82.2962252 531.112288,79.8366814 C531.112288,71.3649193 537.309322,66.992397 549.841102,66.7191143 L564.300847,66.3091904 Z" id="形状"></path>
                <path d="M618.642857,7 L606.484009,12.1038711 C604.627254,12.8832739 603.419255,14.7004611 603.419255,16.7141666 L603.419255,29.7061404 L603.419255,29.7061404 L591,29.7061404 L591,42.4868421 L603.419255,42.4868421 L603.419255,82.1885965 C603.419255,87.8991228 604.754658,92.1140351 607.425466,95.1052632 C610.229814,98.3684211 614.636646,100 620.645963,100 L632.263975,100 L632.263975,87.2192982 L623.18323,87.2192982 C621.580745,87.2192982 620.512422,86.8114035 619.71118,85.995614 C618.909938,85.0438596 618.642857,83.8201754 618.642857,82.1885965 L618.642857,42.4868421 L634,42.4868421 L634,29.7061404 L618.642857,29.7061404 L618.642857,7 Z" id="路径"></path>
            </g>
        </g>
    </g>
</svg>