<?xml version="1.0" encoding="UTF-8"?>
<svg width="310px" height="301px" viewBox="0 0 310 301" version="1.1" xmlns="http://www.w3.org/2000/svg" xmlns:xlink="http://www.w3.org/1999/xlink">
    <title>编组</title>
    <g id="页面-1" stroke="none" stroke-width="1" fill="none" fill-rule="evenodd">
        <g id="画板备份-13" transform="translate(-374.000000, -237.000000)">
            <g id="编组" transform="translate(380.770442, 250.197532)">
                <path d="M186.97442,128.077375 L208.997156,140.413824 C222.210994,148.434986 230.362473,163.339017 230.362473,179.477822 L230.362473,203.432974 L230.362473,271.981454 L230.362473,275.298368 C230.362473,296.101837 214.449898,312.96638 194.820742,312.96638 C188.58368,312.96638 182.456436,311.226894 177.054512,307.922659 C152.321942,292.794305 133.772514,281.448039 121.406229,273.883862" id="路径备份-4" stroke="#000000" stroke-width="25" stroke-linecap="round" transform="translate(175.884351, 220.521878) rotate(90.000000) translate(-175.884351, -220.521878) "></path>
                <path d="M170.416771,18.1868194 L182.220226,24.5931392 C195.434065,32.6143012 203.585544,47.5183323 203.585544,63.6571366 L203.585544,87.6122886 L203.585544,156.160769 L203.585544,159.477683 C203.585544,180.281152 187.672969,197.145695 168.043813,197.145695 C161.806751,197.145695 155.679506,195.406209 150.277583,192.101974 L79.8707413,149.035701 C56.7991184,134.92331 42.5855438,108.836406 42.5855438,80.604261 L42.5855438,9.56990284 C42.5855438,-5.34466968 50.2067159,-18.3727325 61.5469031,-25.3786825 C63.4084377,-26.5287357 66.0397871,-27.7356028 68.7291736,-28.8362372 C74.1807212,-31.0672893 85.6553353,-36.1456952 85.6553353,-36.1456952" id="路径备份-6" stroke="#000000" stroke-width="25" stroke-linecap="round" transform="translate(123.085544, 80.500000) rotate(90.000000) translate(-123.085544, -80.500000) "></path>
                <path d="M228.37899,181.060859 L228.37899,158.039297 C228.37899,136.203221 245.455899,118.501585 266.521335,118.501585 C273.172121,118.501585 279.707316,120.304234 285.478498,123.730673 L289.941433,126.380387" id="路径备份-8" stroke="#000000" stroke-width="25" stroke-linecap="round" transform="translate(259.160212, 149.781222) rotate(90.000000) translate(-259.160212, -149.781222) "></path>
                <path d="M19.3923119,136.493592 L52.538666,97.7772833 C55.5709592,94.2354398 60.8061676,93.5958734 64.6019427,96.3035566 L82.7060715,109.21798 C86.5047852,111.927759 91.7445287,111.284859 94.7754627,107.737103 L142.969321,51.3254362 C146.020089,47.7544646 151.303903,47.129834 155.103232,49.8910155 L163.439849,55.9496942 L163.439849,55.9496942" id="路径-5" stroke="#000000" stroke-width="15" stroke-linecap="round"></path>
                <path d="M182.406903,92.0924076 L177.335267,93.5778554 C175.03923,94.250349 172.632761,92.9342072 171.960267,90.6381703 C171.727396,89.8430994 171.727396,88.9979263 171.960267,88.2028554 L173.445715,83.1312192 C173.929519,81.4794083 173.929519,79.7235067 173.445715,78.0716958 L171.960267,73.0000596 C171.287773,70.7040227 172.603915,68.2975532 174.899952,67.6250596 C175.695023,67.3921887 176.540196,67.3921887 177.335267,67.6250596 L182.406903,69.1105074 C184.058714,69.5943116 185.814616,69.5943116 187.466427,69.1105074 L192.538063,67.6250596 C194.8341,66.952566 197.240569,68.2687078 197.913063,70.5647447 C198.145934,71.3598156 198.145934,72.2049887 197.913063,73.0000596 L196.427615,78.0716958 C195.943811,79.7235067 195.943811,81.4794083 196.427615,83.1312192 L197.913063,88.2028554 C198.585556,90.4988923 197.269415,92.9053618 194.973378,93.5778554 C194.178307,93.8107263 193.333134,93.8107263 192.538063,93.5778554 L187.466427,92.0924076 C185.814616,91.6086033 184.058714,91.6086033 182.406903,92.0924076 Z" id="星形" fill="#000000" transform="translate(184.936665, 80.601457) rotate(-315.000000) translate(-184.936665, -80.601457) "></path>
                <polygon id="路径-6备份-9" fill="#000000" transform="translate(53.696156, 211.569200) rotate(-1.000000) translate(-53.696156, -211.569200) " points="1.11415068 147.270951 77.9599777 265.98181 106.278161 275.867449 32.660135 152.451163"></polygon>
                <polygon id="路径-6备份-10" fill="#000000" transform="translate(259.889087, 72.101023) rotate(-1.000000) translate(-259.889087, -72.101023) " points="229.182378 48.4207798 267.034826 127.738187 290.595407 130.471118 241.411415 13.7316199"></polygon>
                <polygon id="路径-6备份-12" fill="#000000" transform="translate(191.907294, 205.668945) rotate(-1.000000) translate(-191.907294, -205.668945) " points="134.33752 157.040021 234.277422 262.550592 249.477067 265.366321 170.061137 145.972702"></polygon>
            </g>
        </g>
    </g>
</svg>